<svg width="112" height="128" version="1.1" viewBox="0 0 16.832 19.23" xmlns="http://www.w3.org/2000/svg">
  <defs>
    <style>.cls-1{fill:#fff}.cls-2{fill:#2f3a3e}.cls-3{fill:#3ab14a}</style>
  </defs>
  <title>Asset 1</title>
  <g transform="translate(.00026833 .00179)" data-name="Layer 2">
    <g stroke-width=".1216" data-name="Layer 1">
      <path class="cls-1" d="m15.661 3.9233-6.0727-3.6054a2.2873 2.2873 0 0 0-2.3432 0l-6.0739 3.6054a2.4223 2.4223 0 0 0-1.171 2.0866v7.2096a2.4223 2.4223 0 0 0 1.171 2.0854l6.0727 3.6042a2.2885 2.2885 0 0 0 2.3432 0l6.0727-3.6042a2.4223 2.4223 0 0 0 1.1722-2.0866v-7.2084a2.4223 2.4223 0 0 0-1.171-2.0866z" fill="#fff"/>
      <path class="cls-2" d="m15.661 3.9233-6.0727-3.6054a2.2873 2.2873 0 0 0-2.3432 0l-6.0739 3.6054a2.4223 2.4223 0 0 0-1.171 2.0866v7.2096a2.4223 2.4223 0 0 0 1.171 2.0854l6.0727 3.6042a2.2885 2.2885 0 0 0 2.3432 0l6.0727-3.6042a2.4223 2.4223 0 0 0 1.1722-2.0866v-7.2084a2.4223 2.4223 0 0 0-1.171-2.0866zm-8.2043 14.617-6.0727-3.6042a1.9991 1.9991 0 0 1-0.96307-1.717v-7.2096a1.9979 1.9979 0 0 1 0.96307-1.717l6.0727-3.6054a1.8726 1.8726 0 0 1 1.9188 0l6.0678 3.6054a1.9857 1.9857 0 0 1 0.93267 1.3887c-0.20186-0.42925-0.65542-0.5472-1.1844-0.2432l-5.7407 3.5556c-0.71622 0.41709-1.244 0.88768-1.2452 1.751v7.0795c0 0.5168 0.20794 0.8512 0.52896 0.94969a1.8605 1.8605 0 0 1-0.31859 0.0304 1.8811 1.8811 0 0 1-0.95942-0.26387z"/>
      <path class="cls-3" d="m14.069 13.916-1.5127 0.9047a0.11066 0.11066 0 0 0-0.06931 0.09849v0.39763c0 0.04864 0.03283 0.0681 0.07296 0.04499l1.5358-0.93388a0.1216 0.1216 0 0 0 0.04621-0.1216v-0.34899c-0.0012-0.04499-0.03648-0.06445-0.07296-0.04134z" fill="#fff"/>
      <path class="cls-1" d="m10.849 10.586c0.04864-0.02432 0.08877 0 0.08998 0.06931l0.0049 0.52774a0.9728 0.9728 0 0 1 0.58125-0.07053c0.0377 0.0097 0.0535 0.0608 0.03891 0.1216l-0.11552 0.46329a0.19942 0.19942 0 0 1-0.05229 0.09242 0.1216 0.1216 0 0 1-0.0304 0.02189 0.069312 0.069312 0 0 1-0.04499 0.0073 0.77094 0.77094 0 0 0-0.56057 0.08998 0.70406 0.70406 0 0 0-0.41466 0.6238c0 0.2432 0.1216 0.31008 0.54598 0.31738 0.56058 0.0097 0.80377 0.25414 0.80985 0.81958a2.01 2.01 0 0 1-0.74419 1.5163l0.0097 0.51802a0.1897 0.1897 0 0 1-0.08877 0.15808l-0.30643 0.17632c-0.04864 0.02432-0.08877 0-0.08998-0.0681v-0.5095c-0.26266 0.10944-0.52896 0.13498-0.6992 0.066879-0.031616-0.01216-0.046208-0.059584-0.032832-0.1143l0.11066-0.46816a0.19578 0.19578 0 0 1 0.05472-0.09728 0.1216 0.1216 0 0 1 0.029184-0.02067 0.0608 0.0608 0 0 1 0.049856 0 0.8512 0.8512 0 0 0 0.64326-0.08147 0.84147 0.84147 0 0 0 0.47546-0.7296c0-0.26266-0.1447-0.37209-0.4864-0.37453-0.44141 0-0.8512-0.08512-0.85971-0.7296a1.8848 1.8848 0 0 1 0.71257-1.4422l-0.02189-0.53017a0.18848 0.18848 0 0 1 0.08877-0.16051z"/>
    </g>
  </g>
</svg>
