<svg width="127.15" height="128" preserveAspectRatio="xMinYMin meet" version="1.1" viewBox="0 0 13.02 13.107" xmlns="http://www.w3.org/2000/svg">
  <g stroke-width=".0512">
    <path d="m3.568 3.5684-0.84716-0.84716 0.00358 6.1235 0.010138 0.28621c0.0042 0.13466 0.029184 0.28662 0.070861 0.44411l6.7125 2.367 1.6779-0.74343 6.14e-4 -2e-3 -7.6285-7.6282"/>
    <path d="m2.8054 9.5751 4.096e-4 4.096e-4c-4.096e-4 -0.00276-0.00184-0.00584-0.00184-0.0087 0 0.00287 4.096e-4 0.00553 0.00143 0.00829zm8.3905 1.6236-1.6779 0.74343-6.7121-2.3666c0.12821 0.49193 0.41206 1.0449 0.71752 1.3473l2.1905 2.1781 4.8707 0.0063 0.61194-1.9106z"/>
    <path d="m0.112 6.6619c-0.21688 0.23153-0.10916 0.70912 0.24003 1.061l1.5062 1.5187 0.9472 0.33352c-0.041677-0.15749-0.066663-0.30945-0.070861-0.44411l-0.010138-0.28621-0.00358-6.1235z"/>
    <path d="m9.5731 2.7999c-0.15749-0.040243-0.30853-0.065127-0.44544-0.069427l-0.30249-0.010445-6.1043 8.192e-4 8.4765 8.4758h7.17e-4l0.74445-1.6796-2.3694-6.7172"/>
    <path d="m9.5654 2.7982c0.00328 7.168e-4 0.00584 0.00164 0.00799 0.00195l-3.072e-4 -3.072e-4c-0.00184-9.216e-4 -0.0044-9.216e-4 -0.00768-0.00164zm1.3541 0.7208c-0.30761-0.31017-0.8533-0.59208-1.3462-0.71885l2.3691 6.7168-0.74445 1.6796h-7.17e-4l1.8192-0.58102 0.0039-4.9877z"/>
    <path d="m9.2412 1.8584-1.5183-1.5071c-0.35113-0.34785-0.82893-0.45609-1.0598-0.23982l-3.9422 2.6094 6.1043-8.192e-4 0.30249 0.010445c0.13691 0.0043 0.28795 0.029184 0.44544 0.069427z"/>
  </g>
</svg>
