<svg width="128" height="47.822" version="1.1" viewBox="0 0 10.588 3.9095" xmlns="http://www.w3.org/2000/svg">
  <path d="m0.79906 1.1746c-0.020621 0-0.025776-0.01031-0.015466-0.025776l0.10826-0.13919c0.01031-0.015466 0.036086-0.025776 0.056707-0.025776h1.8404c0.020621 0 0.025776 0.015466 0.015466 0.030931l-0.087638 0.13404c-0.01031 0.015466-0.036087 0.030931-0.051552 0.030931zm-0.77844 0.47428c-0.020621 0-0.025776-0.01031-0.015466-0.025776l0.10826-0.13919c0.01031-0.015466 0.036086-0.025776 0.056707-0.025776h2.3508c0.020621 0 0.030931 0.015466 0.025776 0.030931l-0.041242 0.12372c-0.00516 0.020621-0.025776 0.030931-0.046397 0.030931zm1.2476 0.47428c-0.020621 0-0.025776-0.015466-0.015466-0.030931l0.072173-0.12888c0.01031-0.015466 0.030931-0.030931 0.051552-0.030931h1.031c0.020621 0 0.030931 0.015466 0.030931 0.036086l-0.01031 0.12372c0 0.020621-0.020621 0.036086-0.036086 0.036086zm5.3511-1.0414c-0.32478 0.082483-0.54645 0.14435-0.86607 0.22683-0.077328 0.020621-0.082483 0.025776-0.1495-0.051552-0.077328-0.087639-0.13404-0.14435-0.24229-0.1959-0.32478-0.15981-0.63925-0.11341-0.93309 0.077328-0.35055 0.22683-0.53099 0.56192-0.52583 0.97949 0.0051552 0.41242 0.28869 0.75266 0.69595 0.80937 0.35055 0.046397 0.6444-0.077328 0.87638-0.34024 0.046397-0.056707 0.087638-0.11857 0.13919-0.19074h-0.99495c-0.10826 0-0.13404-0.067018-0.097949-0.15466 0.067018-0.15981 0.19074-0.42788 0.26292-0.56192 0.015466-0.030931 0.051552-0.082483 0.12888-0.082483h1.8765c-0.01031 0.13919-0.01031 0.27838-0.030931 0.41757-0.056707 0.37117-0.1959 0.71142-0.42273 1.0104-0.37117 0.48974-0.85576 0.7939-1.4692 0.87638-0.50521 0.067018-0.97433-0.030931-1.3868-0.34024-0.38149-0.28869-0.598-0.67018-0.65471-1.1445-0.067018-0.56192 0.097949-1.0671 0.43819-1.5105 0.36602-0.47943 0.85061-0.78359 1.4435-0.89185 0.48459-0.087638 0.94856-0.030931 1.3661 0.25261 0.27323 0.18043 0.46912 0.42788 0.598 0.72688 0.030931 0.046397 0.01031 0.072173-0.051552 0.087638z" stroke-width=".051552"/>
  <path d="m8.3257 3.9327c-0.46912-0.01031-0.89701-0.14435-1.2579-0.45366-0.30416-0.26292-0.4949-0.598-0.55676-0.99495-0.092794-0.58254 0.067018-1.0981 0.41757-1.5569 0.37633-0.4949 0.82999-0.75266 1.4435-0.86092 0.52583-0.092794 1.0207-0.041242 1.4692 0.26292 0.40726 0.27838 0.65987 0.65471 0.72688 1.1496 0.087639 0.69595-0.11341 1.263-0.59285 1.7476-0.34024 0.3454-0.75782 0.56192-1.2372 0.65987-0.13919 0.025776-0.27838 0.030931-0.41242 0.046397zm1.2269-2.0827c-0.0051552-0.067018-0.0051552-0.11857-0.015466-0.17012-0.092794-0.51037-0.56192-0.79906-1.0517-0.68564-0.47943 0.10826-0.78875 0.41242-0.90216 0.89701-0.092793 0.40211 0.1031 0.80937 0.47428 0.97433 0.28354 0.12372 0.56707 0.10826 0.8403-0.030931 0.40726-0.21136 0.62894-0.5413 0.65471-0.98464z" stroke-width=".051552"/>
</svg>
