<svg width="128" height="128" version="1.1" viewBox="0 0 53.862 53.862" xmlns="http://www.w3.org/2000/svg">
  <path d="m0 0h53.862v53.862h-53.862z" stroke-width=".0512"/>
  <path d="m49.454 41.016c-0.39424-2.4576-1.9968-4.521-6.743-6.4461-1.6486-0.75776-3.4867-1.3004-4.0346-2.5498-0.19456-0.72704-0.22016-1.1366-0.09728-1.577 0.35328-1.4285 2.0582-1.8739 3.4099-1.4643 0.8704 0.29184 1.6947 0.96261 2.1914 2.0326 2.3245-1.5052 2.3194-1.495 3.9424-2.5292-0.59392-0.9216-0.91136-1.3466-1.3005-1.7408-1.3978-1.5616-3.3024-2.3654-6.3488-2.304-0.52736 0.06656-1.0598 0.13819-1.5872 0.2048-1.5206 0.384-2.9696 1.1827-3.8195 2.2528-2.5498 2.8928-1.8227 7.9564 1.28 10.04 3.0566 2.2938 7.5469 2.816 8.1203 4.9613 0.55808 2.6266-1.9302 3.4764-4.4032 3.1744-1.8227-0.37888-2.8364-1.3056-3.9322-2.9901-2.0172 1.1674-2.0172 1.1674-4.0908 2.3603 0.49152 1.0752 1.0086 1.5616 1.833 2.4934 3.9014 3.9578 13.665 3.7632 15.416-2.2272 0.07163-0.20485 0.54272-1.577 0.16379-3.6916zm-20.173-16.261h-5.0381c0 4.352-0.02043 8.6733-0.02043 13.025 0 2.7699 0.14336 5.3094-0.3072 6.0877-0.73728 1.5308-2.647 1.3414-3.5174 1.0444-0.88576-0.4352-1.3363-1.0547-1.8586-1.9302-0.14336-0.25088-0.25088-0.44544-0.28677-0.4608-1.367 0.83456-2.729 1.6742-4.096 2.5088 0.68101 1.3978 1.6845 2.6112 2.9696 3.3996 1.92 1.152 4.5005 1.5053 7.1988 0.88576 1.7562-0.512 3.2716-1.5718 4.0652-3.1846 1.1469-2.1146 0.90112-4.6746 0.89088-7.5059 0.0256-4.6182 0-9.2365 0-13.87z" fill="#fff" stroke-width=".0512"/>
</svg>
