<svg width="128" height="128" preserveAspectRatio="xMidYMid" version="1.1" viewBox="0 0 13.107 13.107" xmlns="http://www.w3.org/2000/svg">
  <path d="m13.017 6.3929-0.55024-0.34063a7.4653 7.4653 0 0 0-0.01567-0.16025l0.47287-0.44108a0.18872 0.18872 0 0 0 0.05658-0.17546 0.18867 0.18867 0 0 0-0.11929-0.14049l-0.60451-0.22604a7.0324 7.0324 0 0 0-0.04736-0.15605l0.37708-0.52371a0.18933 0.18933 0 0 0-0.12324-0.29767l-0.63743-0.10368c-0.02478-0.048332-0.05059-0.095947-0.07659-0.14315l0.26782-0.58792a0.18857 0.18857 0 0 0-0.01474-0.1838 0.18831 0.18831 0 0 0-0.16404-0.084069l-0.64695 0.022528a5.1121 5.1121 0 0 0-0.1022-0.12395l0.14868-0.63016a0.18913 0.18913 0 0 0-0.050482-0.17746 0.18933 0.18933 0 0 0-0.17735-0.050482l-0.63 0.14853a5.4369 5.4369 0 0 0-0.12421-0.10219l0.02263-0.6469a0.18862 0.18862 0 0 0-0.083966-0.16409 0.18908 0.18908 0 0 0-0.1838-0.014848l-0.58777 0.26798a6.8215 6.8215 0 0 0-0.14315-0.076798l-0.10393-0.63753a0.18944 0.18944 0 0 0-0.29757-0.12324l-0.52407 0.37708c-0.051557-0.016384-0.10342-0.032204-0.15575-0.047205l-0.22604-0.60461a0.18892 0.18892 0 0 0-0.14054-0.1196 0.18979 0.18979 0 0 0-0.17531 0.056626l-0.44108 0.47323a5.6887 5.6887 0 0 0-0.16025-0.015667l-0.34063-0.55039a0.18933 0.18933 0 0 0-0.32199 0l-0.34063 0.55039a5.6524 5.6524 0 0 0-0.16041 0.015667l-0.44118-0.47323a0.18918 0.18918 0 0 0-0.31585 0.062975l-0.22599 0.60461c-0.052377 0.015001-0.10419 0.030924-0.1559 0.047206l-0.52397-0.37708a0.18877 0.18877 0 0 0-0.18324-0.021248 0.18969 0.18969 0 0 0-0.11443 0.14448l-0.10393 0.63753c-0.048127 0.024934-0.095691 0.050585-0.14315 0.076798l-0.58782-0.26803a0.18872 0.18872 0 0 0-0.1837 0.014899 0.18862 0.18862 0 0 0-0.084069 0.16409l0.022528 0.6469a6.043 6.043 0 0 0-0.12421 0.10219l-0.63-0.14848a0.18995 0.18995 0 0 0-0.17746 0.050431 0.18913 0.18913 0 0 0-0.050482 0.17746l0.14843 0.63016c-0.034457 0.040806-0.068505 0.082123-0.10194 0.12395l-0.64695-0.022528a0.19051 0.19051 0 0 0-0.16404 0.084018 0.18923 0.18923 0 0 0-0.014899 0.1838l0.26798 0.58797c-0.02606 0.047206-0.051813 0.09482-0.076798 0.14315l-0.63738 0.10368a0.18944 0.18944 0 0 0-0.12324 0.29767l0.37708 0.52377c-0.016384 0.051711-0.032307 0.10363-0.047359 0.156l-0.60456 0.22604a0.18954 0.18954 0 0 0-0.062719 0.31595l0.47293 0.44103c-0.005888 0.053247-0.01111 0.10685-0.015616 0.1603l-0.55034 0.34063a0.18918 0.18918 0 0 0-0.089598 0.16102c0 0.065739 0.033945 0.12662 0.089649 0.16092l0.55029 0.34063c0.004506 0.053605 0.009728 0.10711 0.015616 0.1603l-0.47298 0.44118a0.18928 0.18928 0 0 0 0.06277 0.31585l0.60456 0.22604c0.015052 0.052325 0.030975 0.10429 0.047359 0.156l-0.37708 0.52382a0.18923 0.18923 0 0 0 0.12339 0.29757l0.63727 0.10368c0.024934 0.048332 0.050482 0.095947 0.076798 0.14336l-0.26803 0.58776a0.18898 0.18898 0 0 0 0.014899 0.1838 0.18862 0.18862 0 0 0 0.16404 0.08402l0.64664-0.02263c0.03374 0.04203 0.067685 0.08325 0.10224 0.12421l-0.14843 0.63026a0.18851 0.18851 0 0 0 0.050482 0.1771 0.18857 0.18857 0 0 0 0.17746 0.05033l0.63-0.14837c0.040959 0.03482 0.08243 0.06861 0.12426 0.10189l-0.022527 0.6471a0.18913 0.18913 0 0 0 0.26772 0.17879l0.58782-0.26782a5.401 5.401 0 0 0 0.14315 0.07675l0.10393 0.63717a0.18903 0.18903 0 0 0 0.11443 0.14464 0.18974 0.18974 0 0 0 0.18324-0.02115l0.52371-0.37734c0.051711 0.01638 0.10368 0.03241 0.156 0.04746l0.22604 0.60435a0.18867 0.18867 0 0 0 0.14049 0.11934 0.18826 0.18826 0 0 0 0.17536-0.05663l0.44118-0.47298c0.053247 0.0061 0.1068 0.01126 0.16041 0.01603l0.34063 0.55029a0.18954 0.18954 0 0 0 0.16092 0.0896 0.18959 0.18959 0 0 0 0.16102-0.0896l0.34063-0.55029c0.053605-0.0048 0.10711-0.0099 0.1603-0.01603l0.44108 0.47298a0.18841 0.18841 0 0 0 0.17531 0.05663 0.18892 0.18892 0 0 0 0.14049-0.11934l0.22604-0.60435c0.052325-0.01505 0.10434-0.03108 0.15605-0.04746l0.52382 0.37734a0.18944 0.18944 0 0 0 0.29757-0.12349l0.10393-0.63717c0.048076-0.02493 0.09564-0.05084 0.1431-0.0768l0.58782 0.26787a0.18903 0.18903 0 0 0 0.26777-0.17879l-0.02253-0.64705a5.0564 5.0564 0 0 0 0.12406-0.10194l0.63006 0.14837c0.064 0.01505 0.13107-0.0036 0.1773-0.05033a0.18851 0.18851 0 0 0 0.05048-0.1771l-0.14837-0.63026c0.03456-0.04096 0.06861-0.08217 0.10189-0.12421l0.64695 0.02263a0.18846 0.18846 0 0 0 0.16404-0.08397 0.18867 0.18867 0 0 0 0.0148-0.18391l-0.26787-0.58766c0.02616-0.047461 0.05186-0.095077 0.07664-0.14336l0.63743-0.10373a0.18851 0.18851 0 0 0 0.14448-0.11448 0.18923 0.18923 0 0 0-0.02125-0.18309l-0.37708-0.52377c0.01628-0.051762 0.0322-0.10373 0.04736-0.15605l0.60446-0.22604a0.18862 0.18862 0 0 0 0.11934-0.14054 0.18826 0.18826 0 0 0-0.056626-0.17531l-0.47282-0.44118c0.0057-0.053247 0.01101-0.1068 0.01562-0.16025l0.55028-0.34068a0.18892 0.18892 0 0 0 0.08965-0.16092c0-0.065586-0.03379-0.12656-0.08955-0.16102zm-3.6828 4.5647c-0.21012-0.045311-0.34375-0.25241-0.29864-0.4632 0.044953-0.21053 0.2519-0.34452 0.46197-0.29921 0.21012 0.045 0.34396 0.25246 0.2989 0.46284-0.045055 0.21043-0.25221 0.34457-0.46222 0.29957zm-0.18698-1.2646a0.35476 0.35476 0 0 0-0.42137 0.27299l-0.19538 0.9117c-0.60287 0.27361-1.2723 0.42562-1.9774 0.42562-0.72119 0-1.4052-0.15954-2.0188-0.44482l-0.19527-0.91165c-0.041062-0.19184-0.22968-0.31405-0.42127-0.27289l-0.80485 0.17285a4.7754 4.7754 0 0 1-0.41615-0.49049h3.9162c0.044287 0 0.073829-0.00804 0.073829-0.048383v-1.3853c0-0.040294-0.029542-0.048332-0.07388-0.048332h-1.1453v-0.87806h1.2388c0.11305 0 0.60461 0.032255 0.76174 0.66057 0.049253 0.19323 0.15728 0.82174 0.23121 1.023 0.073624 0.22569 0.37339 0.67649 0.69288 0.67649h1.9515c0.02217 0 0.04582-0.00251 0.07076-0.00701a4.8086 4.8086 0 0 1-0.44385 0.52069l-0.82338-0.17694zm-5.4163 1.2455c-0.21017 0.04536-0.41707-0.08863-0.46228-0.29916-0.044953-0.21089 0.088677-0.41789 0.2988-0.4632 0.21017-0.04495 0.41717 0.08904 0.46222 0.29952 0.044953 0.21043-0.088779 0.41778-0.2988 0.46284zm-1.4856-6.0241c0.087192 0.19671-0.001536 0.42726-0.19799 0.51429-0.19645 0.087294-0.42639-0.0015359-0.51353-0.1984-0.087192-0.19686 0.0014848-0.427 0.19799-0.51429a0.38901 0.38901 0 0 1 0.51353 0.19834zm-0.45659 1.0823 0.83844-0.37258a0.35542 0.35542 0 0 0 0.18043-0.46888l-0.17264-0.39044h0.6791v3.0611h-1.3701a4.7973 4.7973 0 0 1-0.18258-1.3144c0-0.17397 0.00937-0.3459 0.027392-0.51486zm3.6793-0.29731v-0.90228h1.6172c0.083557 0 0.58981 0.096561 0.58981 0.47513 0 0.31431-0.38829 0.427-0.70762 0.427h-1.4994zm5.8772 0.81212c0 0.1197-0.0044 0.23818-0.01316 0.35573h-0.49166c-0.0492 0-0.06902 0.032358-0.06902 0.080536v0.22579c0 0.53145-0.29967 0.64705-0.56227 0.67649-0.25005 0.02816-0.52735-0.1047-0.56149-0.25774-0.14756-0.82973-0.39336-1.0069-0.78155-1.3132 0.48178-0.30591 0.98302-0.75723 0.98302-1.3614 0-0.65228-0.44717-1.0631-0.75201-1.2646-0.42761-0.2819-0.9011-0.33843-1.0288-0.33843h-5.0847c0.6895-0.76952 1.624-1.3146 2.6809-1.513l0.59934 0.62872a0.35445 0.35445 0 0 0 0.5017 0.011571l0.6706-0.64142c1.4052 0.26163 2.5949 1.1363 3.2805 2.3364l-0.4591 1.0369c-0.07926 0.17945 0.0016 0.38932 0.18058 0.46883l0.8839 0.39259c0.01526 0.15692 0.0233 0.31544 0.0233 0.47615zm-5.0812-5.2446c0.15529-0.14873 0.40161-0.14285 0.55029 0.012646 0.14837 0.15595 0.14274 0.40253-0.012902 0.55116-0.15529 0.14878-0.40161 0.143-0.55029-0.0128a0.39019 0.39019 0 0 1 0.012902-0.551zm4.5558 3.6664a0.38881 0.38881 0 0 1 0.51342-0.19824c0.1965 0.087141 0.28518 0.31759 0.19799 0.51429a0.38886 0.38886 0 0 1-0.51353 0.1984c-0.19625-0.087192-0.28492-0.31743-0.19788-0.51445z" stroke-width=".051199"/>
</svg>
