<svg width="128" height="128" version="1.1" viewBox="0 0 20.48 20.48" xmlns="http://www.w3.org/2000/svg">
  <style>.st0{fill:#007acc}.st1{fill:#fff}</style>
  <path class="st0" d="M 0,10.24 V 0 H 20.48 V 20.48 H 0" stroke-width=".0512"/>
  <path class="st1" d="m4.4902 10.276v0.83456h2.6624v7.5776h1.8893v-7.5776h2.6624v-0.8192c0-0.4608 0-0.83456-0.02048-0.8448 0-0.01536-1.623-0.02048-3.5942-0.02048l-3.584 0.01536v0.83968zm11.965-0.85504c0.52224 0.12288 0.9216 0.3584 1.28 0.73216 0.18944 0.2048 0.47104 0.5632 0.49152 0.65536 0 0.03072-0.88576 0.62976-1.4234 0.96256-0.02048 0.01536-0.1024-0.07168-0.18432-0.2048-0.26624-0.37888-0.5376-0.54272-0.96256-0.57344-0.6144-0.04096-1.024 0.2816-1.024 0.8192 0 0.16384 0.03072 0.256 0.09216 0.38912 0.13824 0.2816 0.39424 0.45056 1.1878 0.79872 1.4643 0.62976 2.0992 1.0445 2.4832 1.6384 0.4352 0.6656 0.53248 1.7101 0.24064 2.4934-0.32768 0.85504-1.1264 1.4336-2.2682 1.623-0.3584 0.06144-1.1776 0.0512-1.5616-0.01536-0.8192-0.1536-1.6026-0.5632-2.0838-1.0906-0.18944-0.2048-0.55296-0.75264-0.53248-0.78848l0.19456-0.12288 0.768-0.44544 0.57856-0.33792 0.13312 0.1792c0.16896 0.26624 0.54784 0.62464 0.768 0.74752 0.6656 0.34304 1.5565 0.29696 1.9968-0.1024 0.18944-0.17408 0.27136-0.3584 0.27136-0.6144 0-0.23552-0.03584-0.34304-0.1536-0.52224-0.16384-0.22528-0.49152-0.4096-1.4131-0.8192-1.0598-0.45056-1.5104-0.73728-1.9302-1.1776-0.24064-0.26624-0.4608-0.68096-0.5632-1.024-0.0768-0.29696-0.1024-1.024-0.03072-1.3158 0.22016-1.024 0.99328-1.7408 2.0992-1.9456 0.3584-0.07168 1.2032-0.04096 1.5565 0.0512z" fill="#fff" stroke-width=".0512"/>
</svg>
