<svg width="113.89" height="128" preserveAspectRatio="xMinYMin meet" version="1.1" viewBox="0 0 13.121 14.746" xmlns="http://www.w3.org/2000/svg">
  <g stroke-width=".051338">
    <path d="m13.12 4.3356c-1.03e-4 -0.24796-0.053135-0.46708-0.16038-0.65513-0.10535-0.18492-0.26311-0.33991-0.47473-0.46246-1.7468-1.0072-3.4953-2.0113-5.2415-3.0196-0.47077-0.27179-0.92722-0.26188-1.3945 0.01381-0.69528 0.41004-4.1763 2.4044-5.2136 3.0052-0.42719 0.2473-0.63506 0.62576-0.63516 1.1177-6.674e-4 2.0256 0 4.0511-6.674e-4 6.0767 1.0268e-4 0.24252 0.050876 0.45737 0.1534 0.6426 0.1054 0.19052 0.26537 0.34977 0.48186 0.47508 1.0373 0.60081 4.5188 2.595 5.2139 3.0051 0.46749 0.27584 0.92394 0.2857 1.3949 0.01381 1.7463-1.0083 3.4949-2.0124 5.2419-3.0196 0.21649-0.12527 0.37646-0.28462 0.48186-0.47498 0.10237-0.18523 0.15324-0.40008 0.15335-0.64265 0 0 0-4.05-6.67e-4 -6.0756"/>
    <path d="m6.5807 7.3538-6.4273 3.7007c0.1054 0.19052 0.26537 0.34977 0.48186 0.47508 1.0373 0.60081 4.5188 2.595 5.2139 3.0051 0.46749 0.27584 0.92394 0.2857 1.3949 0.01381 1.7463-1.0083 3.4949-2.0124 5.2419-3.0196 0.21649-0.12527 0.37646-0.28462 0.48186-0.47498l-6.3872-3.7002"/>
    <path d="m4.677 8.45c0.374 0.65292 1.0771 1.0933 1.8836 1.0933 0.81151 0 1.5186-0.44598 1.8907-1.1059l-1.8706-1.0836-1.9037 1.0962"/>
    <path d="m13.12 4.3356c-1.03e-4 -0.24796-0.053135-0.46708-0.16038-0.65513l-6.3795 3.6733 6.3872 3.7002c0.10237-0.18523 0.15324-0.40008 0.15335-0.64265 0 0 0-4.05-6.67e-4 -6.0756"/>
  </g>
  <path d="m8.4513 8.4374c-0.3721 0.6599-1.0792 1.1059-1.8907 1.1059-0.80653 0-1.5096-0.44038-1.8836-1.0933a2.1594 2.1594 0 0 1-0.28616-1.0765c0-1.1983 0.97148-2.1697 2.1698-2.1697 0.80134 0 1.5007 0.43489 1.8766 1.0811l1.8965-1.0921c-0.7538-1.3012-2.1611-2.1766-3.7731-2.1766-2.4065 0-4.3573 1.9509-4.3573 4.3573 0 0.78948 0.21003 1.5298 0.57709 2.1684 0.7519 1.3081 2.1632 2.1889 3.7802 2.1889 1.62 0 3.0335-0.88436 3.7844-2.1963l-1.8937-1.0972" fill="#fff" stroke-width=".051338"/>
</svg>
