<svg width="93.963" height="128" preserveAspectRatio="xMidYMid" version="1.1" viewBox="0 0 13.854 19.964" xmlns="http://www.w3.org/2000/svg">
  <g stroke-width=".057497">
    <path d="m-0.21235 10.808c0.02863 0.58992 0.61856 0.31503 0.88201 0.13173 0.25201-0.17755 0.32647-0.02863 0.34935-0.3723 0.01719-0.22907 0.04007-0.45245 0.02863-0.68152-0.38374-0.03438-0.79611 0.05727-1.1111 0.28634-0.16605 0.11453-0.46389 0.49258-0.14892 0.63575m11.758 7.2508c0.45245 0.28064 1.2829 1.1283 0.60137 1.5407-0.65294 0.59567-1.0194-0.65869-1.5922-0.83049 0.24626-0.33791 0.55554-0.64719 0.99085-0.71021zm-8.0985 0.95647c-0.53266 0.08021-0.83049 0.56129-1.2772 0.80761-0.41812 0.24626-0.57848-0.08021-0.61286-0.14892-0.06296-0.02863-0.05727 0.02863-0.16036-0.07446-0.38943-0.61286 0.40093-1.0596 0.8133-1.3631 0.57273-0.11453 0.93359 0.38374 1.2371 0.77892zm10.613-8.2818c-0.02863 0.58992-0.61856 0.31503-0.88201 0.13173-0.25201-0.17755-0.32647-0.02863-0.34936-0.3723-0.01725-0.22907-0.04013-0.45245-0.02863-0.68152 0.38368-0.03438 0.79605 0.05727 1.1111 0.28634 0.16042 0.11454 0.46395 0.49258 0.14892 0.63575" fill="none"/>
    <path d="m12.497 3.5395c2.0447-0.72165 0.44676-3.5223-1.3345-2.2852-1.1683-1.0023-2.7777-1.1856-4.4673-1.1856-1.6551 0.13184-3.2302 0.43537-4.3298 1.3975-1.7756-1.1455-3.4136 1.6036-1.3288 2.2967-0.58417 2.268 0.08015 4.5819-0.0115 6.89-0.0859 2.0734-0.63 4.8511 0.52122 6.7125 0.97941 1.5922 3.087 2.1593 4.8225 2.2223 2.2165 0.08015 4.9026-0.46395 5.9793-2.6117 1.0309-2.0447 0.74459-4.5934 0.61286-6.7984-0.13173-2.228 0.11454-4.4903-0.46395-6.6381z" fill="none"/>
    <path d="m14.215 10.384c-0.057267-0.12028-0.16605-0.25776-0.26915-0.33222-0.26345-0.18899-0.60142-0.29209-0.95078-0.30353-0.011442-0.3551-0.022884-0.74459-0.022884-1.2371v-0.44676c-0.00575-1.4089-0.022941-2.0275-0.10309-2.8007-0.063017-0.60706-0.16042-1.1683-0.29784-1.6953 0.46395-0.17755 0.76748-0.46964 0.88776-0.84768 0.11454-0.34935 0.057267-0.74453-0.13742-1.0939-0.20049-0.34366-0.52121-0.60142-0.89351-0.70446-0.40093-0.10884-0.83618-0.02863-1.2543 0.25195-0.3723-0.31497-0.8018-0.55554-1.2829-0.73884-0.85338-0.31491-1.8442-0.4352-3.1901-0.4352v0.05727l-0.0057-0.05727c-1.4376 0.11454-2.5029 0.33791-3.3849 0.76748-0.3551 0.1718-0.67008 0.37799-0.94497 0.61856-0.42387-0.26345-0.86488-0.32647-1.2715-0.20044-0.37799 0.11454-0.70446 0.38374-0.8992 0.73309-0.19474 0.34935-0.24057 0.75028-0.10884 1.0939 0.13173 0.3436 0.43526 0.61281 0.88776 0.77892-0.14317 0.57842-0.21763 1.1913-0.22907 1.8671-0.0115 0.65863 0.01713 1.1856 0.12023 2.3768 0.07446 0.88776 0.10309 1.2944 0.11459 1.787-0.38949-0.01719-0.77892 0.0859-1.0711 0.29784-0.10309 0.07446-0.21763 0.20619-0.26914 0.33216-0.07446 0.16042-0.04583 0.30359 0.10309 0.38949 0.02288 0.2749 0.17755 0.40087 0.41237 0.37799 0.1718-0.01719 0.37799-0.10884 0.55554-0.23482a0.64443 0.64443 0 0 1 0.12028-0.06871c0.01719-0.0057 0.02863-0.0115 0.04583-0.01725 0 0 0.03433-0.01139 0.04583-0.01713 0.01713-0.0057 0.03433-0.0115 0.04577-0.02294-0.01144 0.2692-0.03433 0.54985-0.0859 1.1913-0.05727 0.72159-0.0859 1.1168-0.09734 1.5578-0.05157 1.638 0.14317 2.8293 0.72734 3.7743 0.1833 0.29784 0.40668 0.56129 0.67013 0.80186-0.05157 0.03433-0.2692 0.19474-0.33791 0.24626-0.24057 0.1833-0.40662 0.33791-0.50402 0.50971-0.12598 0.22338-0.12598 0.44676 0.01719 0.68158l0.0057 0.0058 0.0057 0.0057c0.06296 0.06296 0.09734 0.08015 0.14317 0.08015h0.01708c0.0057 0.0115 0.0115 0.01719 0.01725 0.02863 0.01713 0.02863 0.03433 0.05152 0.05152 0.07446 0.14317 0.16611 0.3436 0.20618 0.61281 0.04583 0.14317-0.07446 0.24626-0.16042 0.46389-0.34366l0.0115-0.0115c0.34935-0.29778 0.52116-0.40656 0.77892-0.4467l0.09165-0.01719c0.03433 0.01725 0.06871 0.02869 0.10878 0.04583 0.8133 0.32647 1.7583 0.50402 2.7148 0.53841 1.2371 0.04583 2.4284-0.10884 3.4364-0.47539 0.2692-0.09734 0.52121-0.21194 0.76178-0.33791 0.14892 0.05727 0.27484 0.17755 0.51546 0.4582 0.01144 0.0115 0.01144 0.0115 0.01713 0.02288 0.0115 0.0115 0.0115 0.01725 0.01725 0.02294 0.01138 0.01719 0.02858 0.02863 0.04002 0.04583 0.18905 0.22332 0.31508 0.33216 0.45825 0.39518 0.18894 0.08015 0.37224 0.04008 0.56123-0.13173 0.33222-0.20619 0.3551-0.52691 0.13742-0.89351-0.15461-0.2577-0.42376-0.52691-0.67577-0.69871 0.29784-0.29209 0.55554-0.64144 0.75598-1.0367 0.54985-1.0996 0.76178-2.3826 0.75034-4.0321-0.0058-0.58417-0.02869-1.0939-0.09165-2.0676v-0.02858c0.02863 0.01144 0.05727 0.02863 0.0859 0.05152 0.17755 0.12028 0.38374 0.21763 0.55554 0.23482 0.23482 0.02294 0.38949-0.10309 0.41237-0.37799 0.14317-0.09165 0.1718-0.23482 0.09734-0.39518zm-1.8212-9.3414c0.34366 0.09165 0.6415 0.33222 0.82474 0.65294 0.1833 0.32072 0.23482 0.68158 0.13173 1.0023-0.10879 0.33791-0.38374 0.60712-0.8133 0.76748a9.3169 9.3169 0 0 0-0.30353-0.90495c0.16611-0.14317 0.24626-0.32072 0.11453-0.57267-0.13167-0.25207-0.3608-0.2807-0.59567-0.20624-0.14892-0.19474-0.31497-0.36655-0.48677-0.52691 0.37799-0.24057 0.76748-0.30928 1.1283-0.21194zm-12.211 1.9359c-0.12028-0.30934-0.08021-0.67582 0.10309-0.99654 0.18324-0.32078 0.48108-0.57273 0.83618-0.67582 0.36655-0.10884 0.76173-0.05732 1.1512 0.1718a3.7684 3.7684 0 0 0-0.59567 0.68158c-0.29784-0.15467-0.60136-0.1833-0.77317 0.13167-0.17755 0.33797 0.02863 0.54985 0.32072 0.71021-0.04008 0.0974-0.08021 0.20049-0.11454 0.30359-0.04013 0.12598-0.08021 0.2577-0.11454 0.38943-0.41812-0.16036-0.69302-0.40662-0.8133-0.7159zm0.69302 7.8064c-0.0057 0-0.04013 0.01144-0.04013 0.01713-0.01713 0.0057-0.03433 0.0115-0.05152 0.02294-0.04583 0.01719-0.09165 0.04583-0.13742 0.08015-0.16042 0.11459-0.35516 0.20049-0.50408 0.21194-0.1718 0.01719-0.26914-0.05727-0.28634-0.26345 0.12028-0.04008 0.1718-0.06871 0.21763-0.13742l-0.09165-0.06877c-0.03433 0.04583-0.06871 0.06302-0.1718 0.09734-0.0057 0-0.0057 0-0.0115 0.0058-0.09159-0.05157-0.10878-0.13173-0.05721-0.24626 0.04583-0.10309 0.14892-0.22338 0.23482-0.28634 0.2749-0.20049 0.64144-0.29784 1.008-0.27495 0 0.14317 0.0057 0.28634 0 0.42376 0 0.01725 0 0.02869-0.0058 0.04588-0.0057 0.08015-0.0057 0.11454-0.01144 0.15467-0.01713 0.16605-0.02863 0.18894-0.09159 0.21763zm1.7296 8.6426-0.0115 0.0115c-0.21188 0.18324-0.31497 0.2577-0.4467 0.33216-0.21763 0.13173-0.36655 0.10309-0.46964-0.02288-0.01719-0.01725-0.02863-0.04013-0.04008-0.05733-0.0057-0.0057-0.0115-0.01713-0.01719-0.02288v-0.0058c0.0115-0.10309 0.05157-0.17755 0.15467-0.33791 0.0058-0.0057 0.0058-0.0057 0.0058-0.01144 0.06296-0.09165 0.09159-0.14317 0.12023-0.20619l-0.10309-0.04583c-0.02288 0.05157-0.05152 0.0974-0.10884 0.18899-0.0057 0.0057-0.0057 0.0057-0.0057 0.0115-0.10304 0.14892-0.14892 0.24051-0.1718 0.3436h-0.02299c-0.0115-0.0057-0.02863-0.01719-0.05152-0.04008-0.22338-0.3551-0.04583-0.65863 0.45814-1.0367 0.06302-0.04577 0.27495-0.19469 0.33222-0.24051 0.0115 0 0.02288-0.0057 0.03438-0.0115 0.30922 0.26351 0.67008 0.49258 1.071 0.68158 0 0.0057 0.0057 0.0115 0.01144 0.01725-0.23482 0.05721-0.41812 0.17749-0.73884 0.45239zm9.6163-0.62425c0.17755 0.29784 0.1718 0.53835-0.05157 0.70446-0.01713-0.03438-0.02863-0.07446-0.05152-0.13173 0-0.0057 0-0.0057-0.0058-0.0115-0.08015-0.21763-0.13167-0.30922-0.22907-0.41231l-0.08021 0.08015c0.0859 0.08021 0.12603 0.16611 0.20619 0.36655 0 0.0057 0 0.0057 0.0057 0.0115 0.02863 0.0744 0.04583 0.12023 0.06302 0.16036-0.14892 0.12598-0.28064 0.14892-0.41812 0.0859-0.12028-0.05157-0.23482-0.16042-0.41812-0.36655-0.01144-0.0115-0.02288-0.02863-0.03433-0.04583-0.0058-0.0057-0.0115-0.0115-0.01725-0.02294-0.01138-0.01144-0.01138-0.01144-0.01713-0.02288-0.21194-0.24626-0.33791-0.37799-0.47539-0.4525 0.32078-0.18324 0.60717-0.38943 0.86488-0.63 0.24051 0.17755 0.50971 0.441 0.65863 0.68732zm0.08015-1.8557c-0.49252 0.99085-1.3631 1.6896-2.5315 2.1134-0.99655 0.36085-2.1764 0.50977-3.3963 0.46395-2.1019-0.07446-3.9232-0.80755-4.7766-2.1936-0.57273-0.92214-0.76178-2.0962-0.71021-3.7113 0.01719-0.441 0.04008-0.83618 0.09734-1.5578 0.06302-0.8133 0.08021-1.0481 0.0974-1.4147 0.01144-0.26345 0.01144-0.53266 0.0057-0.81899-0.0115-0.50402-0.04013-0.90495-0.11459-1.8042-0.10309-1.1913-0.13173-1.7125-0.12028-2.3654 0.01725-0.85901 0.13173-1.6151 0.3723-2.3309 0.38932-1.1628 1.1053-1.9474 2.1363-2.4571 0.86482-0.42376 1.9129-0.64144 3.339-0.75603 1.3345 0 2.3081 0.12028 3.1501 0.42956 1.008 0.3723 1.7583 1.0252 2.2737 2.0275 0.33222 0.81324 0.52696 1.6896 0.63006 2.6976 0.08015 0.76748 0.09734 1.386 0.10309 2.7892v0.44676c0.0057 0.69302 0.01713 1.1798 0.04583 1.6667 0.01144 0.18899 0.01713 0.2692 0.04577 0.72165 0.06302 0.97366 0.08596 1.4777 0.09165 2.0619 0.0115 1.6437-0.19474 2.9095-0.73884 3.992zm1.7526-6.2715c-0.0058 0-0.01144-0.0057-0.01713-0.0057-0.10309-0.03433-0.13748-0.05727-0.17186-0.09734l-0.09165 0.06871c0.05157 0.06877 0.10309 0.0974 0.21768 0.13742-0.02294 0.20624-0.12028 0.2807-0.28634 0.26351-0.14892-0.0115-0.34372-0.10309-0.50408-0.21194-0.04583-0.03433-0.09159-0.05727-0.13742-0.08015-0.0058 0-0.0115-0.0058-0.01725-0.0058-0.02288-0.31497-0.02288-0.39518-0.03433-0.56129l-0.01719-0.30928c0.32078 0.0057 0.63575 0.10309 0.87626 0.28064 0.08596 0.06302 0.18905 0.1833 0.23488 0.28634 0.05727 0.0974 0.04583 0.1833-0.05157 0.23488z"/>
    <path d="m7.5631 5.9753c0.0057 0.29209 0.06302 0.61281 0.01144 0.92209-0.08021 0.14892-0.22907 0.16617-0.3608 0.22338-0.1833-0.02863-0.33797-0.14892-0.41237-0.32072-0.04583-0.34935 0.01144-0.68158 0.02863-1.0309 0-0.0115 0.21763 0.0057 0.41237 0.06302 0.16605 0.05152 0.32072 0.13742 0.32072 0.14317zm-1.6209 0.02288c-0.16042 0.60717 0.21194 1.598 0.82474 0.78467-0.04583-0.34366 0.0058-0.67582 0.02288-1.0137 0.0058-0.02863-0.84188 0.18899-0.84763 0.22907z" fill="none"/>
    <path d="m7.6319 6.2445c-0.0115-0.17186-0.01719-0.24057-0.01719-0.32647v-0.04008l-0.04007-0.0115-0.72165-0.22332v-0.04013l-0.07446 0.01725h-0.0057v0.0057l-0.81324 0.20618-0.02863 0.0057-0.0115 0.02858c-0.12598 0.30359-0.09734 0.76178 0.06302 1.0424 0.1833 0.32072 0.48108 0.32641 0.78467-0.04013a0.58601 0.58601 0 0 0 0.42951 0.30934h0.01725l0.01713-0.0057c0.02294-0.0115 0.04583-0.01725 0.08596-0.03438 0.0057 0 0.0057 0 0.01144-0.0057 0.16605-0.05727 0.23482-0.10309 0.29209-0.21188l0.0057-0.0057v-0.01144c0.01713-0.10309 0.02288-0.21194 0.02288-0.33216 0-0.08596-0.0058-0.16617-0.01719-0.32647zm-0.91639-0.21194c-0.0058 0.10309-0.01144 0.14317-0.01713 0.20044-0.0115 0.21194-0.0115 0.3723 0.0058 0.53266-0.26926 0.34366-0.48114 0.34366-0.62431 0.0859-0.13748-0.24051-0.16617-0.64719-0.06302-0.91634l0.72159-0.1833c-0.0057 0.07446-0.01138 0.14892-0.02288 0.28064zm0.80186 0.84768c-0.04007 0.06871-0.09165 0.10309-0.22913 0.14892-0.0058 0-0.0058 0-0.01144 0.0057-0.03433 0.0115-0.05727 0.02288-0.07446 0.02863-0.15467-0.02863-0.28634-0.13173-0.34935-0.2749-0.01719-0.15467-0.01719-0.31503-0.0058-0.52691 0.0058-0.05732 0.0058-0.0974 0.01725-0.20049 0.01139-0.13167 0.01713-0.21188 0.01713-0.28634l0.62431 0.18899c0 0.07446 0.0058 0.14317 0.01719 0.29209 0.01144 0.15467 0.01713 0.23482 0.01713 0.32647 0 0.10878-0.0057 0.20619-0.02288 0.29784z"/>
  </g>
  <g transform="matrix(.057497 0 0 .057497 2.363 1.2521)">
    <path d="m2.291 38.749c9.164 35.66 66.241 26.496 64.05-9.264-2.591-42.833-72.816-34.565-64.051 9.264" fill="none"/>
    <path d="m67.337 29.385c-0.598-10.36-5.18-18.428-12.75-23.508-6.774-4.582-15.739-6.375-24.604-5.28-8.865 1.197-17.034 5.181-22.413 11.457-5.976 6.972-8.267 16.136-6.175 26.695l0.896-0.2-0.896 0.2c9.363 36.656 68.133 27.791 65.942-9.364zm-64.15 9.165c-1.992-10.06 0.2-18.627 5.778-25.102 5.08-5.877 12.75-9.761 21.217-10.857s16.934 0.598 23.31 4.98c7.071 4.782 11.355 12.253 11.952 22.114 2.092 34.764-53.391 43.132-62.256 8.865z"/>
    <ellipse cx="18.03" cy="32.872" rx="9.662" ry="10.459"/>
    <ellipse cx="22.412" cy="35.262" rx="2.291" ry="2.689" fill="#fff"/>
  </g>
  <g transform="matrix(.057497 0 0 .057497 7.0284 1.0291)">
    <path d="m1.195 35.96c7.073 40.94 74.011 30.082 64.349-11.157-8.666-37.055-66.74-26.795-64.349 11.157" fill="none"/>
    <path d="m66.44 24.604c-8.865-38.151-68.63-27.692-66.24 11.455v0.1c3.286 19.324 20.52 29.186 39.545 25.998 8.665-1.494 16.435-5.677 21.515-11.853 5.578-6.874 7.57-15.739 5.18-25.7zm-6.673 24.504c-4.782 5.778-12.053 9.762-20.321 11.157-18.03 2.988-34.167-6.276-37.354-24.405-2.192-36.856 54.188-46.718 62.555-10.858 2.192 9.463 0.399 17.731-4.88 24.106z"/>
    <ellipse cx="17.631" cy="34.167" rx="9.463" ry="10.459"/>
    <ellipse cx="22.014" cy="36.557" rx="2.191" ry="2.689" fill="#fff"/>
  </g>
  <g stroke-width=".057497">
    <path d="m6.0606 4.7609c-0.4525 0.04008-0.81905 0.57273-0.58417 0.99654 0.30922 0.56129 1.0022-0.05152 1.4318 0.0057 0.49827 0.0115 0.90495 0.52691 1.3001 0.09165 0.44101-0.48114-0.18899-0.95078-0.68732-1.157z" fill="none"/>
    <path d="m8.2656 5.1446c-0.15467-0.19474-0.42381-0.3723-0.71596-0.49258l-0.01144-0.0057h-0.01144l-1.4662 0.05732c-0.50977 0.04583-0.87626 0.63575-0.63006 1.0824 0.0974 0.17186 0.22913 0.25776 0.40668 0.2692 0.13167 0.0058 0.2692-0.02288 0.48108-0.09734 0.01719-0.0057 0.04008-0.0115 0.06871-0.02294 0.2864-0.09734 0.40093-0.12598 0.51546-0.10878h0.0057c0.13742 0 0.25201 0.04008 0.46964 0.12598 0.24057 0.09734 0.31503 0.12603 0.43526 0.13742 0.16617 0.0115 0.30934-0.04577 0.441-0.18894 0.22338-0.24632 0.21194-0.50977 0.0115-0.75603zm-0.0974 0.67582c-0.10878 0.12028-0.21763 0.16042-0.34935 0.15467-0.10309-0.0057-0.1718-0.03438-0.40093-0.12603-0.22907-0.09734-0.35505-0.13167-0.50396-0.13742-0.14317-0.01725-0.26345 0.01144-0.56704 0.11454-0.02863 0.01144-0.05152 0.01719-0.06871 0.02288-0.41812 0.14317-0.61856 0.13173-0.75603-0.12028-0.20619-0.37224 0.10884-0.87626 0.5384-0.91634l1.449-0.05732c0.27495 0.11459 0.52121 0.28064 0.66438 0.45826 0.1718 0.20613 0.17755 0.41231-0.0058 0.60706z"/>
    <path d="m7.6356 4.5146c-0.17755-0.65294-1.6667-0.55554-1.6324 0.22338 0.07446 0.57842 1.8042 0.42376 1.6324-0.22338z"/>
  </g>
</svg>
