<svg width="128" height="128" preserveAspectRatio="xMidYMid" version="1.1" viewBox="0 0 13.107 13.107" xmlns="http://www.w3.org/2000/svg">
  <g stroke-width=".051232">
    <path d="m11.567 6.5546c0-2.7677-2.2463-5.014-5.014-5.014-2.7677 0-5.014 2.2463-5.014 5.014 0 2.7677 2.2463 5.014 5.014 5.014 2.7677 0 5.014-2.2463 5.014-5.014"/>
    <path d="m10.098 4.4772c0-0.81064-0.65792-1.4686-1.4686-1.4686s-1.4686 0.65797-1.4686 1.4686c0 0.81064 0.65797 1.4686 1.4686 1.4686s1.4686-0.65792 1.4686-1.4686" fill="#fff"/>
    <path d="m13.035 1.5405c0-0.81064-0.65792-1.4686-1.4686-1.4686-0.81064 0-1.4686 0.65792-1.4686 1.4686 0 0.81069 0.65792 1.4686 1.4686 1.4686 0.81064 0 1.4686-0.65792 1.4686-1.4686"/>
    <path d="m6.7857 13.107-0.00523-0.15036c0.18587-0.0065 0.37332-0.02116 0.55704-0.04355l0.018239 0.14929c-0.18802 0.02295-0.37983 0.03791-0.57005 0.04457zm-0.57185-0.0046c-0.18992-0.0097-0.38142-0.02792-0.56923-0.054l0.020646-0.14898c0.18351 0.02546 0.37071 0.04319 0.55627 0.05272l-0.00768 0.15021zm1.706-0.13412-0.031251-0.14714c0.18162-0.03853 0.36359-0.08556 0.54095-0.13986l0.044059 0.14381a6.5329 6.5329 0 0 1-0.55381 0.14318zm-2.8377-0.02327c-0.1851-0.042471-0.37056-0.093754-0.5513-0.15231l0.046365-0.14309a6.385 6.385 0 0 0 0.53855 0.14878zm3.9305-0.31118-0.056508-0.1394a6.3992 6.3992 0 0 0 0.50801-0.23223l0.068445 0.13397a6.5539 6.5539 0 0 1-0.51995 0.23766zm-5.0179-0.04145a6.5627 6.5627 0 0 1-0.51636-0.24647l0.0707-0.13279c0.16394 0.0873 0.33372 0.1683 0.50448 0.24079zm6.0352-0.4785-0.079922-0.12746a6.4691 6.4691 0 0 0 0.46016-0.31712l0.09068 0.12004a6.62 6.62 0 0 1-0.47092 0.3245zm-7.0443-0.05861a6.6144 6.6144 0 0 1-0.46559-0.33234l0.092627-0.11855a6.4559 6.4559 0 0 0 0.45494 0.32481zm7.9563-0.6301-0.10072-0.11168c0.13792-0.12434 0.27204-0.25616 0.39858-0.39187l0.10999 0.10262a6.6395 6.6395 0 0 1-0.40791 0.40094zm-8.8569-0.073667a6.6311 6.6311 0 0 1-0.40114-0.4077l0.11168-0.10072a6.4827 6.4827 0 0 0 0.39202 0.39838zm9.6364-0.76212-0.1185-0.09263a6.4653 6.4653 0 0 0 0.32496-0.45483l0.12608 0.08207a6.6073 6.6073 0 0 1-0.33254 0.46539zm-10.402-0.086377a6.5986 6.5986 0 0 1-0.32471-0.47077l0.12741-0.079921a6.4528 6.4528 0 0 0 0.31733 0.45996l-0.12004 0.09068zm11.025-0.87171-0.13274-0.0707c0.08735-0.16394 0.16845-0.33367 0.24104-0.50438l0.13843 0.058865a6.57 6.57 0 0 1-0.24673 0.51621zm-11.633-0.096213a6.5616 6.5616 0 0 1-0.23797-0.5199l0.13935-0.05656a6.3987 6.3987 0 0 0 0.23249 0.50791zm12.08-0.95598-0.14304-0.046467a6.3833 6.3833 0 0 0 0.14908-0.53844l0.14657 0.03371a6.5365 6.5365 0 0 1-0.15262 0.5512zm-12.509-0.10287a6.5276 6.5276 0 0 1-0.14345-0.55366l0.14714-0.031251a6.3837 6.3837 0 0 0 0.14012 0.54085zm12.766-1.0108-0.14898-0.020749c0.02556-0.18341 0.04339-0.37056 0.05292-0.55622l0.15026 0.00779a6.6111 6.6111 0 0 1-0.0542 0.56918zm-13.004-0.10687a6.6268 6.6268 0 0 1-0.044879-0.57005l0.15036-0.00533c0.006506 0.18582 0.021312 0.37322 0.043803 0.55704zm12.912-1.029c-0.006455-0.18546-0.02121-0.37297-0.043854-0.5572l0.14929-0.018341c0.02316 0.18858 0.03827 0.3805 0.04488 0.57031zm-12.802-0.10528-0.15021-0.0075823c0.0096315-0.18997 0.027665-0.38152 0.05364-0.56929l0.14903 0.020595c-0.025411 0.18351-0.043035 0.37066-0.052461 0.55627zm12.666-1.0032a6.4353 6.4353 0 0 0-0.13996-0.54116l0.14386-0.043957a6.584 6.584 0 0 1 0.14324 0.55381zm-12.513-0.10267-0.14662-0.033608a6.5312 6.5312 0 0 1 0.15206-0.55135l0.14314 0.046365a6.3804 6.3804 0 0 0-0.14857 0.5386zm12.187-0.96546c-0.069573-0.17214-0.14755-0.34325-0.23182-0.50863l0.13402-0.068292a6.5903 6.5903 0 0 1 0.23725 0.52056zm-11.843-0.096879-0.13848-0.058711a6.5554 6.5554 0 0 1 0.24622-0.51652l0.13279 0.070648a6.4071 6.4071 0 0 0-0.24053 0.50458zm0.52425-0.98621-0.12613-0.081971a6.6114 6.6114 0 0 1 0.33213-0.46575l0.11855 0.092576a6.4678 6.4678 0 0 0-0.32455 0.45509zm0.68732-0.88042-0.11015-0.10246a6.6309 6.6309 0 0 1 0.4075-0.4014l0.10082 0.11168a6.4828 6.4828 0 0 0-0.39817 0.39218zm0.82877-0.74849-0.090782-0.11988a6.6084 6.6084 0 0 1 0.47061-0.32496l0.080024 0.12736a6.4511 6.4511 0 0 0-0.45986 0.31753zm7.3514-0.26123-0.0082-0.00528 0.08177-0.12623 0.0079 0.00512zm-0.49018-0.28828a6.4402 6.4402 0 0 0-0.50484-0.23987l0.058558-0.13853a6.5771 6.5771 0 0 1 0.51667 0.2455zm-5.9158-0.044264-0.06865-0.13387a6.5502 6.5502 0 0 1 0.5198-0.23823l0.056611 0.13935a6.4042 6.4042 0 0 0-0.50776 0.23275zm4.8871-0.39054a6.4283 6.4283 0 0 0-0.5388-0.14857l0.033608-0.14662c0.18515 0.04242 0.37071 0.0936 0.55151 0.15206zm-3.8529-0.029612-0.044162-0.14381a6.5378 6.5378 0 0 1 0.55361-0.1437l0.031354 0.14709a6.3869 6.3869 0 0 0-0.5408 0.14043zm2.7644-0.22009c-0.18392-0.025616-0.37112-0.043342-0.55648-0.052769l0.00768-0.15021c0.18966 0.0096316 0.38132 0.027819 0.56955 0.053998zm-1.6725-0.012757-0.018443-0.14929c0.18802-0.023157 0.37983-0.038321 0.57005-0.045135l0.00538 0.15031c-0.18592 0.0066601-0.37327 0.021517-0.55699 0.04411z"/>
  </g>
</svg>
