<svg width="128.67" height="128" preserveAspectRatio="xMinYMin meet" version="1.1" viewBox="0 0 13.176 13.108" xmlns="http://www.w3.org/2000/svg">
  <path d="m6.541 0c-3.3451 0-3.1363 1.4507-3.1363 1.4507l0.00372 1.5029h3.1922v0.45122h-4.4601s-2.1406-0.24276-2.1406 3.1325c0 3.3753 1.8683 3.2556 1.8683 3.2556h1.115v-1.5663s-0.06011-1.8683 1.8385-1.8683h3.1661s1.7788 0.02874 1.7788-1.7192v-2.8901s0.27016-1.749-3.2257-1.749zm-1.7602 1.0107a0.57376 0.57376 0 0 1 0.57428 0.57428 0.57376 0.57376 0 0 1-0.57428 0.57428 0.57376 0.57376 0 0 1-0.57428-0.57428 0.57376 0.57376 0 0 1 0.57428-0.57428z" stroke-width=".051597"/>
  <path d="m6.636 13.108c3.3451 0 3.1363-1.4507 3.1363-1.4507l-0.00371-1.5029h-3.1923v-0.45122h4.4601s2.1406 0.24276 2.1406-3.1326c0-3.3753-1.8683-3.2556-1.8683-3.2556h-1.115v1.5662s0.06011 1.8683-1.8385 1.8683h-3.1661s-1.7788-0.02874-1.7788 1.7192v2.8901s-0.27011 1.749 3.2257 1.749zm1.7602-1.0106a0.57376 0.57376 0 0 1-0.57428-0.57428 0.57376 0.57376 0 0 1 0.57428-0.57433 0.57376 0.57376 0 0 1 0.57428 0.57428 0.57376 0.57376 0 0 1-0.57428 0.57428z" stroke-width=".051597"/>
</svg>
